<?xml version="1.0" standalone="no"?>
 <!DOCTYPE svg PUBLIC "-//W3C//DTD SVG 1.1//EN" 
 "http://www.w3.org/Graphics/SVG/1.1/DTD/svg11.dtd"> 
<svg
  xmlns:svg="http://www.w3.org/2000/svg"
  xmlns="http://www.w3.org/2000/svg"
  xmlns:xlink="http://www.w3.org/1999/xlink"
  version="1.1"
  width="67.5894mm" height="40.6654mm" viewBox="0.0000 0.0000 67.5894 40.6654">
<title>SVG Image created as robal-brd.svg date 2025/01/05 17:06:07 </title>
  <desc>Image generated by PCBNEW </desc>
<g style="fill:#000000; fill-opacity:1.0000;stroke:#000000; stroke-opacity:1.0000;
stroke-linecap:round; stroke-linejoin:round;"
 transform="translate(0 0) scale(1 1)">
</g>
<g style="fill:none; 
stroke:#000000; stroke-width:0.0500; stroke-opacity:1; 
stroke-linecap:round; stroke-linejoin:round;">
<path d="M66.0890 40.6650
L1.5250 40.6650
" />
<path d="M0.0250 39.1650
L0.0250 1.5250
" />
<path d="M66.0890 40.6650 A1.5000 1.5000 0.0 0 0 67.5890 39.1650" />
<path d="M67.5890 1.5250
L67.5890 39.1650
" />
<path d="M1.5250 0.0250 A1.5000 1.5000 0.0 0 0 0.0250 1.5250" />
<path d="M67.5890 1.5250 A1.5000 1.5000 0.0 0 0 66.0890 0.0250" />
<path d="M0.0250 39.1650 A1.5000 1.5000 0.0 0 0 1.5250 40.6650" />
<path d="M1.5250 0.0250
L66.0890 0.0250
" />
</g>
<g style="fill:#000000; fill-opacity:1.0000; stroke:none;">
<circle cx="43.5765" cy="33.0450" r="0.5000" /> 
</g>
<g style="fill:#000000; fill-opacity:1.0000; stroke:none;">
<circle cx="41.0365" cy="33.0450" r="0.5000" /> 
</g>
<g style="fill:#000000; fill-opacity:1.0000; stroke:none;">
<circle cx="43.5765" cy="30.5050" r="0.5000" /> 
</g>
<g style="fill:#000000; fill-opacity:1.0000; stroke:none;">
<circle cx="41.0365" cy="30.5050" r="0.5000" /> 
</g>
<g style="fill:#000000; fill-opacity:1.0000; stroke:none;">
<circle cx="43.5765" cy="27.9650" r="0.5000" /> 
</g>
<g style="fill:#000000; fill-opacity:1.0000; stroke:none;">
<circle cx="41.0365" cy="27.9650" r="0.5000" /> 
</g>
<g style="fill:#000000; fill-opacity:1.0000; stroke:none;">
<circle cx="43.5765" cy="25.4250" r="0.5000" /> 
</g>
<g style="fill:#000000; fill-opacity:1.0000; stroke:none;">
<circle cx="41.0365" cy="25.4250" r="0.5000" /> 
</g>
<g style="fill:#000000; fill-opacity:1.0000; stroke:none;">
<circle cx="43.5765" cy="22.8850" r="0.5000" /> 
</g>
<g style="fill:#000000; fill-opacity:1.0000; stroke:none;">
<circle cx="41.0365" cy="22.8850" r="0.5000" /> 
</g>
<g style="fill:#000000; fill-opacity:1.0000; stroke:none;">
<circle cx="43.5765" cy="20.3450" r="0.5000" /> 
</g>
<g style="fill:#000000; fill-opacity:1.0000; stroke:none;">
<circle cx="41.0365" cy="20.3450" r="0.5000" /> 
</g>
<g style="fill:#000000; fill-opacity:1.0000; stroke:none;">
<circle cx="43.5765" cy="17.8050" r="0.5000" /> 
</g>
<g style="fill:#000000; fill-opacity:1.0000; stroke:none;">
<circle cx="41.0365" cy="17.8050" r="0.5000" /> 
</g>
<g style="fill:#000000; fill-opacity:1.0000; stroke:none;">
<circle cx="43.5765" cy="15.2650" r="0.5000" /> 
</g>
<g style="fill:#000000; fill-opacity:1.0000; stroke:none;">
<circle cx="41.0365" cy="15.2650" r="0.5000" /> 
</g>
<g style="fill:#000000; fill-opacity:1.0000; stroke:none;">
<circle cx="25.4590" cy="22.8800" r="0.5000" /> 
</g>
<g style="fill:#000000; fill-opacity:1.0000; stroke:none;">
<circle cx="27.9990" cy="22.8800" r="0.5000" /> 
</g>
<g style="fill:#000000; fill-opacity:1.0000; stroke:none;">
<circle cx="25.4590" cy="25.4200" r="0.5000" /> 
</g>
<g style="fill:#000000; fill-opacity:1.0000; stroke:none;">
<circle cx="27.9990" cy="25.4200" r="0.5000" /> 
</g>
<g style="fill:#000000; fill-opacity:1.0000; stroke:none;">
<circle cx="30.1240" cy="3.8350" r="0.7000" /> 
</g>
<g style="fill:#000000; fill-opacity:1.0000; stroke:none;">
<circle cx="45.3640" cy="3.8350" r="0.7000" /> 
</g>
<g style="fill:#000000; fill-opacity:1.0000; stroke:none;">
<circle cx="63.1440" cy="4.4700" r="1.6000" /> 
</g>
<g style="fill:#000000; fill-opacity:1.0000; stroke:none;">
<circle cx="4.7240" cy="36.2200" r="1.6000" /> 
</g>
<g style="fill:#000000; fill-opacity:1.0000; stroke:none;">
<circle cx="18.2590" cy="22.8800" r="0.5000" /> 
</g>
<g style="fill:#000000; fill-opacity:1.0000; stroke:none;">
<circle cx="20.7990" cy="22.8800" r="0.5000" /> 
</g>
<g style="fill:#000000; fill-opacity:1.0000; stroke:none;">
<circle cx="18.2590" cy="25.4200" r="0.5000" /> 
</g>
<g style="fill:#000000; fill-opacity:1.0000; stroke:none;">
<circle cx="20.7990" cy="25.4200" r="0.5000" /> 
</g>
<g style="fill:#000000; fill-opacity:1.0000; stroke:none;">
<circle cx="32.6590" cy="22.8800" r="0.5000" /> 
</g>
<g style="fill:#000000; fill-opacity:1.0000; stroke:none;">
<circle cx="35.1990" cy="22.8800" r="0.5000" /> 
</g>
<g style="fill:#000000; fill-opacity:1.0000; stroke:none;">
<circle cx="32.6590" cy="25.4200" r="0.5000" /> 
</g>
<g style="fill:#000000; fill-opacity:1.0000; stroke:none;">
<circle cx="35.1990" cy="25.4200" r="0.5000" /> 
</g>
<g style="fill:#000000; fill-opacity:1.0000; stroke:none;">
<circle cx="11.0590" cy="22.8800" r="0.5000" /> 
</g>
<g style="fill:#000000; fill-opacity:1.0000; stroke:none;">
<circle cx="13.5990" cy="22.8800" r="0.5000" /> 
</g>
<g style="fill:#000000; fill-opacity:1.0000; stroke:none;">
<circle cx="11.0590" cy="25.4200" r="0.5000" /> 
</g>
<g style="fill:#000000; fill-opacity:1.0000; stroke:none;">
<circle cx="13.5990" cy="25.4200" r="0.5000" /> 
</g>
<g style="fill:#000000; fill-opacity:1.0000; stroke:none;">
<circle cx="54.9970" cy="25.6790" r="0.5000" /> 
</g>
<g style="fill:#000000; fill-opacity:1.0000; stroke:none;">
<circle cx="52.4570" cy="25.6790" r="0.5000" /> 
</g>
<g style="fill:#000000; fill-opacity:1.0000; stroke:none;">
<circle cx="54.9970" cy="23.1390" r="0.5000" /> 
</g>
<g style="fill:#000000; fill-opacity:1.0000; stroke:none;">
<circle cx="52.4570" cy="23.1390" r="0.5000" /> 
</g>
<g style="fill:#000000; fill-opacity:1.0000; stroke:none;">
<circle cx="54.9970" cy="20.5990" r="0.5000" /> 
</g>
<g style="fill:#000000; fill-opacity:1.0000; stroke:none;">
<circle cx="52.4570" cy="20.5990" r="0.5000" /> 
</g>
<g style="fill:#000000; fill-opacity:1.0000; stroke:none;">
<circle cx="54.9970" cy="18.0590" r="0.5000" /> 
</g>
<g style="fill:#000000; fill-opacity:1.0000; stroke:none;">
<circle cx="52.4570" cy="18.0590" r="0.5000" /> 
</g>
<g style="fill:#000000; fill-opacity:1.0000; stroke:none;">
<circle cx="54.9970" cy="15.5190" r="0.5000" /> 
</g>
<g style="fill:#000000; fill-opacity:1.0000; stroke:none;">
<circle cx="52.4570" cy="15.5190" r="0.5000" /> 
</g>
<g style="fill:#000000; fill-opacity:1.0000; stroke:none;">
<circle cx="63.1440" cy="36.3470" r="1.6000" /> 
</g>
<g style="fill:#000000; fill-opacity:1.0000; stroke:none;">
<circle cx="14.8840" cy="3.8350" r="0.7000" /> 
</g>
<g style="fill:#000000; fill-opacity:1.0000; stroke:none;">
<circle cx="22.5040" cy="3.8350" r="0.7000" /> 
</g>
<g style="fill:#000000; fill-opacity:1.0000; stroke:none;">
<circle cx="4.7240" cy="29.2500" r="0.5000" /> 
</g>
<g style="fill:#000000; fill-opacity:1.0000; stroke:none;">
<circle cx="4.7240" cy="26.7100" r="0.5000" /> 
</g>
<g style="fill:#000000; fill-opacity:1.0000; stroke:none;">
<circle cx="4.7240" cy="24.1700" r="0.5000" /> 
</g>
<g style="fill:#000000; fill-opacity:1.0000; stroke:none;">
<circle cx="4.7240" cy="21.6300" r="0.5000" /> 
</g>
<g style="fill:#000000; fill-opacity:1.0000; stroke:none;">
<circle cx="4.7240" cy="19.0900" r="0.5000" /> 
</g>
<g style="fill:#000000; fill-opacity:1.0000; stroke:none;">
<circle cx="4.7240" cy="16.5500" r="0.5000" /> 
</g>
<g style="fill:#000000; fill-opacity:1.0000; stroke:none;">
<circle cx="4.7240" cy="14.0100" r="0.5000" /> 
</g>
<g style="fill:#000000; fill-opacity:1.0000; stroke:none;">
<circle cx="4.7240" cy="11.4700" r="0.5000" /> 
</g>
<g style="fill:#000000; fill-opacity:1.0000; stroke:none;">
<circle cx="63.1440" cy="29.2500" r="0.5000" /> 
</g>
<g style="fill:#000000; fill-opacity:1.0000; stroke:none;">
<circle cx="63.1440" cy="26.7100" r="0.5000" /> 
</g>
<g style="fill:#000000; fill-opacity:1.0000; stroke:none;">
<circle cx="63.1440" cy="24.1700" r="0.5000" /> 
</g>
<g style="fill:#000000; fill-opacity:1.0000; stroke:none;">
<circle cx="63.1440" cy="21.6300" r="0.5000" /> 
</g>
<g style="fill:#000000; fill-opacity:1.0000; stroke:none;">
<circle cx="63.1440" cy="19.0900" r="0.5000" /> 
</g>
<g style="fill:#000000; fill-opacity:1.0000; stroke:none;">
<circle cx="63.1440" cy="16.5500" r="0.5000" /> 
</g>
<g style="fill:#000000; fill-opacity:1.0000; stroke:none;">
<circle cx="63.1440" cy="14.0100" r="0.5000" /> 
</g>
<g style="fill:#000000; fill-opacity:1.0000; stroke:none;">
<circle cx="63.1440" cy="11.4700" r="0.5000" /> 
</g>
<g style="fill:#000000; fill-opacity:1.0000; stroke:none;">
<circle cx="4.7240" cy="5.1050" r="1.6000" /> 
</g>
<g style="fill:#000000; fill-opacity:1.0000; stroke:none;">
<circle cx="52.9840" cy="3.8350" r="0.7000" /> 
</g>
<g style="fill:#000000; fill-opacity:1.0000; stroke:none;">
<circle cx="37.7440" cy="3.8350" r="0.7000" /> 
<path style="fill:#000000; fill-opacity:1.0000; stroke:none;fill-rule:evenodd;"
d="M 26.9750,55.5260
26.9902,55.4495
27.0336,55.3846
27.0985,55.3412
27.1750,55.3260
27.5750,55.3260
27.6515,55.3412
27.7164,55.3846
27.7598,55.4495
27.7750,55.5260
27.7750,56.0760
27.7598,56.1525
27.7164,56.2174
27.6515,56.2608
27.5750,56.2760
27.1750,56.2760
27.0985,56.2608
27.0336,56.2174
26.9902,56.1525
26.9750,56.0760
Z" /> 
<path style="fill:#000000; fill-opacity:1.0000; stroke:none;fill-rule:evenodd;"
d="M 28.6250,55.5260
28.6402,55.4495
28.6836,55.3846
28.7485,55.3412
28.8250,55.3260
29.2250,55.3260
29.3015,55.3412
29.3664,55.3846
29.4098,55.4495
29.4250,55.5260
29.4250,56.0760
29.4098,56.1525
29.3664,56.2174
29.3015,56.2608
29.2250,56.2760
28.8250,56.2760
28.7485,56.2608
28.6836,56.2174
28.6402,56.1525
28.6250,56.0760
Z" /> 
<path style="fill:#000000; fill-opacity:1.0000; stroke:none;fill-rule:evenodd;"
d="M 30.9850,68.0760
31.0002,67.9995
31.0436,67.9346
31.1085,67.8912
31.1850,67.8760
31.5850,67.8760
31.6615,67.8912
31.7264,67.9346
31.7698,67.9995
31.7850,68.0760
31.7850,68.6260
31.7698,68.7025
31.7264,68.7674
31.6615,68.8108
31.5850,68.8260
31.1850,68.8260
31.1085,68.8108
31.0436,68.7674
31.0002,68.7025
30.9850,68.6260
Z" /> 
<path style="fill:#000000; fill-opacity:1.0000; stroke:none;fill-rule:evenodd;"
d="M 32.6350,68.0760
32.6502,67.9995
32.6936,67.9346
32.7585,67.8912
32.8350,67.8760
33.2350,67.8760
33.3115,67.8912
33.3764,67.9346
33.4198,67.9995
33.4350,68.0760
33.4350,68.6260
33.4198,68.7025
33.3764,68.7674
33.3115,68.8108
33.2350,68.8260
32.8350,68.8260
32.7585,68.8108
32.6936,68.7674
32.6502,68.7025
32.6350,68.6260
Z" /> 
<path style="fill:#000000; fill-opacity:1.0000; stroke:none;fill-rule:evenodd;"
d="M 34.9950,63.0560
35.0102,62.9795
35.0536,62.9146
35.1185,62.8712
35.1950,62.8560
35.5950,62.8560
35.6715,62.8712
35.7364,62.9146
35.7798,62.9795
35.7950,63.0560
35.7950,63.6060
35.7798,63.6825
35.7364,63.7474
35.6715,63.7908
35.5950,63.8060
35.1950,63.8060
35.1185,63.7908
35.0536,63.7474
35.0102,63.6825
34.9950,63.6060
Z" /> 
<path style="fill:#000000; fill-opacity:1.0000; stroke:none;fill-rule:evenodd;"
d="M 36.6450,63.0560
36.6602,62.9795
36.7036,62.9146
36.7685,62.8712
36.8450,62.8560
37.2450,62.8560
37.3215,62.8712
37.3864,62.9146
37.4298,62.9795
37.4450,63.0560
37.4450,63.6060
37.4298,63.6825
37.3864,63.7474
37.3215,63.7908
37.2450,63.8060
36.8450,63.8060
36.7685,63.7908
36.7036,63.7474
36.6602,63.6825
36.6450,63.6060
Z" /> 
<path style="fill:#000000; fill-opacity:1.0000; stroke:none;fill-rule:evenodd;"
d="M 44.4265,33.6450
44.4075,33.7407
44.3533,33.8218
44.2722,33.8760
44.1765,33.8950
42.9765,33.8950
42.8808,33.8760
42.7997,33.8218
42.7455,33.7407
42.7265,33.6450
42.7265,32.4450
42.7455,32.3493
42.7997,32.2682
42.8808,32.2140
42.9765,32.1950
44.1765,32.1950
44.2722,32.2140
44.3533,32.2682
44.4075,32.3493
44.4265,32.4450
Z" /> 
</g>
<g style="fill:#000000; fill-opacity:1.0000; stroke:none;">
<circle cx="41.0365" cy="33.0450" r="0.8500" /> 
</g>
<g style="fill:#000000; fill-opacity:1.0000; stroke:none;">
<circle cx="43.5765" cy="30.5050" r="0.8500" /> 
</g>
<g style="fill:#000000; fill-opacity:1.0000; stroke:none;">
<circle cx="41.0365" cy="30.5050" r="0.8500" /> 
</g>
<g style="fill:#000000; fill-opacity:1.0000; stroke:none;">
<circle cx="43.5765" cy="27.9650" r="0.8500" /> 
</g>
<g style="fill:#000000; fill-opacity:1.0000; stroke:none;">
<circle cx="41.0365" cy="27.9650" r="0.8500" /> 
</g>
<g style="fill:#000000; fill-opacity:1.0000; stroke:none;">
<circle cx="43.5765" cy="25.4250" r="0.8500" /> 
</g>
<g style="fill:#000000; fill-opacity:1.0000; stroke:none;">
<circle cx="41.0365" cy="25.4250" r="0.8500" /> 
</g>
<g style="fill:#000000; fill-opacity:1.0000; stroke:none;">
<circle cx="43.5765" cy="22.8850" r="0.8500" /> 
</g>
<g style="fill:#000000; fill-opacity:1.0000; stroke:none;">
<circle cx="41.0365" cy="22.8850" r="0.8500" /> 
</g>
<g style="fill:#000000; fill-opacity:1.0000; stroke:none;">
<circle cx="43.5765" cy="20.3450" r="0.8500" /> 
</g>
<g style="fill:#000000; fill-opacity:1.0000; stroke:none;">
<circle cx="41.0365" cy="20.3450" r="0.8500" /> 
</g>
<g style="fill:#000000; fill-opacity:1.0000; stroke:none;">
<circle cx="43.5765" cy="17.8050" r="0.8500" /> 
</g>
<g style="fill:#000000; fill-opacity:1.0000; stroke:none;">
<circle cx="41.0365" cy="17.8050" r="0.8500" /> 
</g>
<g style="fill:#000000; fill-opacity:1.0000; stroke:none;">
<circle cx="43.5765" cy="15.2650" r="0.8500" /> 
</g>
<g style="fill:#000000; fill-opacity:1.0000; stroke:none;">
<circle cx="41.0365" cy="15.2650" r="0.8500" /> 
<path style="fill:#000000; fill-opacity:1.0000; stroke:none;fill-rule:evenodd;"
d="M 34.9950,55.5260
35.0102,55.4495
35.0536,55.3846
35.1185,55.3412
35.1950,55.3260
35.5950,55.3260
35.6715,55.3412
35.7364,55.3846
35.7798,55.4495
35.7950,55.5260
35.7950,56.0760
35.7798,56.1525
35.7364,56.2174
35.6715,56.2608
35.5950,56.2760
35.1950,56.2760
35.1185,56.2608
35.0536,56.2174
35.0102,56.1525
34.9950,56.0760
Z" /> 
<path style="fill:#000000; fill-opacity:1.0000; stroke:none;fill-rule:evenodd;"
d="M 36.6450,55.5260
36.6602,55.4495
36.7036,55.3846
36.7685,55.3412
36.8450,55.3260
37.2450,55.3260
37.3215,55.3412
37.3864,55.3846
37.4298,55.4495
37.4450,55.5260
37.4450,56.0760
37.4298,56.1525
37.3864,56.2174
37.3215,56.2608
37.2450,56.2760
36.8450,56.2760
36.7685,56.2608
36.7036,56.2174
36.6602,56.1525
36.6450,56.0760
Z" /> 
<path style="fill:#000000; fill-opacity:1.0000; stroke:none;fill-rule:evenodd;"
d="M 25.0480,36.7690
23.6480,36.7690
23.6480,34.9690
25.0480,34.9690
Z" /> 
<path style="fill:#000000; fill-opacity:1.0000; stroke:none;fill-rule:evenodd;"
d="M 25.0480,34.1690
23.6480,34.1690
23.6480,32.3690
25.0480,32.3690
Z" /> 
<path style="fill:#000000; fill-opacity:1.0000; stroke:none;fill-rule:evenodd;"
d="M 26.9480,36.7690
25.5480,36.7690
25.5480,34.9690
26.9480,34.9690
Z" /> 
<path style="fill:#000000; fill-opacity:1.0000; stroke:none;fill-rule:evenodd;"
d="M 26.9480,34.1690
25.5480,34.1690
25.5480,32.3690
26.9480,32.3690
Z" /> 
<path style="fill:#000000; fill-opacity:1.0000; stroke:none;fill-rule:evenodd;"
d="M 22.9650,65.5660
22.9802,65.4895
23.0236,65.4246
23.0885,65.3812
23.1650,65.3660
23.5650,65.3660
23.6415,65.3812
23.7064,65.4246
23.7498,65.4895
23.7650,65.5660
23.7650,66.1160
23.7498,66.1925
23.7064,66.2574
23.6415,66.3008
23.5650,66.3160
23.1650,66.3160
23.0885,66.3008
23.0236,66.2574
22.9802,66.1925
22.9650,66.1160
Z" /> 
<path style="fill:#000000; fill-opacity:1.0000; stroke:none;fill-rule:evenodd;"
d="M 24.6150,65.5660
24.6302,65.4895
24.6736,65.4246
24.7385,65.3812
24.8150,65.3660
25.2150,65.3660
25.2915,65.3812
25.3564,65.4246
25.3998,65.4895
25.4150,65.5660
25.4150,66.1160
25.3998,66.1925
25.3564,66.2574
25.2915,66.3008
25.2150,66.3160
24.8150,66.3160
24.7385,66.3008
24.6736,66.2574
24.6302,66.1925
24.6150,66.1160
Z" /> 
<path style="fill:#000000; fill-opacity:1.0000; stroke:none;fill-rule:evenodd;"
d="M 30.9850,65.5660
31.0002,65.4895
31.0436,65.4246
31.1085,65.3812
31.1850,65.3660
31.5850,65.3660
31.6615,65.3812
31.7264,65.4246
31.7698,65.4895
31.7850,65.5660
31.7850,66.1160
31.7698,66.1925
31.7264,66.2574
31.6615,66.3008
31.5850,66.3160
31.1850,66.3160
31.1085,66.3008
31.0436,66.2574
31.0002,66.1925
30.9850,66.1160
Z" /> 
<path style="fill:#000000; fill-opacity:1.0000; stroke:none;fill-rule:evenodd;"
d="M 32.6350,65.5660
32.6502,65.4895
32.6936,65.4246
32.7585,65.3812
32.8350,65.3660
33.2350,65.3660
33.3115,65.3812
33.3764,65.4246
33.4198,65.4895
33.4350,65.5660
33.4350,66.1160
33.4198,66.1925
33.3764,66.2574
33.3115,66.3008
33.2350,66.3160
32.8350,66.3160
32.7585,66.3008
32.6936,66.2574
32.6502,66.1925
32.6350,66.1160
Z" /> 
<path style="fill:#000000; fill-opacity:1.0000; stroke:none;fill-rule:evenodd;"
d="M 38.9000,55.3210
38.9076,55.2827
38.9293,55.2503
38.9617,55.2286
39.0000,55.2210
39.2600,55.2210
39.2983,55.2286
39.3307,55.2503
39.3524,55.2827
39.3600,55.3210
39.3600,55.5210
39.3524,55.5593
39.3307,55.5917
39.2983,55.6134
39.2600,55.6210
39.0000,55.6210
38.9617,55.6134
38.9293,55.5917
38.9076,55.5593
38.9000,55.5210
Z" /> 
<path style="fill:#000000; fill-opacity:1.0000; stroke:none;fill-rule:evenodd;"
d="M 39.5400,55.3210
39.5476,55.2827
39.5693,55.2503
39.6017,55.2286
39.6400,55.2210
39.9000,55.2210
39.9383,55.2286
39.9707,55.2503
39.9924,55.2827
40.0000,55.3210
40.0000,55.5210
39.9924,55.5593
39.9707,55.5917
39.9383,55.6134
39.9000,55.6210
39.6400,55.6210
39.6017,55.6134
39.5693,55.5917
39.5476,55.5593
39.5400,55.5210
Z" /> 
<path style="fill:#000000; fill-opacity:1.0000; stroke:none;fill-rule:evenodd;"
d="M 26.9750,60.5460
26.9902,60.4695
27.0336,60.4046
27.0985,60.3612
27.1750,60.3460
27.5750,60.3460
27.6515,60.3612
27.7164,60.4046
27.7598,60.4695
27.7750,60.5460
27.7750,61.0960
27.7598,61.1725
27.7164,61.2374
27.6515,61.2808
27.5750,61.2960
27.1750,61.2960
27.0985,61.2808
27.0336,61.2374
26.9902,61.1725
26.9750,61.0960
Z" /> 
<path style="fill:#000000; fill-opacity:1.0000; stroke:none;fill-rule:evenodd;"
d="M 28.6250,60.5460
28.6402,60.4695
28.6836,60.4046
28.7485,60.3612
28.8250,60.3460
29.2250,60.3460
29.3015,60.3612
29.3664,60.4046
29.4098,60.4695
29.4250,60.5460
29.4250,61.0960
29.4098,61.1725
29.3664,61.2374
29.3015,61.2808
29.2250,61.2960
28.8250,61.2960
28.7485,61.2808
28.6836,61.2374
28.6402,61.1725
28.6250,61.0960
Z" /> 
<path style="fill:#000000; fill-opacity:1.0000; stroke:none;fill-rule:evenodd;"
d="M 30.9850,58.0360
31.0002,57.9595
31.0436,57.8946
31.1085,57.8512
31.1850,57.8360
31.5850,57.8360
31.6615,57.8512
31.7264,57.8946
31.7698,57.9595
31.7850,58.0360
31.7850,58.5860
31.7698,58.6625
31.7264,58.7274
31.6615,58.7708
31.5850,58.7860
31.1850,58.7860
31.1085,58.7708
31.0436,58.7274
31.0002,58.6625
30.9850,58.5860
Z" /> 
<path style="fill:#000000; fill-opacity:1.0000; stroke:none;fill-rule:evenodd;"
d="M 32.6350,58.0360
32.6502,57.9595
32.6936,57.8946
32.7585,57.8512
32.8350,57.8360
33.2350,57.8360
33.3115,57.8512
33.3764,57.8946
33.4198,57.9595
33.4350,58.0360
33.4350,58.5860
33.4198,58.6625
33.3764,58.7274
33.3115,58.7708
33.2350,58.7860
32.8350,58.7860
32.7585,58.7708
32.6936,58.7274
32.6502,58.6625
32.6350,58.5860
Z" /> 
<path style="fill:#000000; fill-opacity:1.0000; stroke:none;fill-rule:evenodd;"
d="M 26.9750,65.5660
26.9902,65.4895
27.0336,65.4246
27.0985,65.3812
27.1750,65.3660
27.5750,65.3660
27.6515,65.3812
27.7164,65.4246
27.7598,65.4895
27.7750,65.5660
27.7750,66.1160
27.7598,66.1925
27.7164,66.2574
27.6515,66.3008
27.5750,66.3160
27.1750,66.3160
27.0985,66.3008
27.0336,66.2574
26.9902,66.1925
26.9750,66.1160
Z" /> 
<path style="fill:#000000; fill-opacity:1.0000; stroke:none;fill-rule:evenodd;"
d="M 28.6250,65.5660
28.6402,65.4895
28.6836,65.4246
28.7485,65.3812
28.8250,65.3660
29.2250,65.3660
29.3015,65.3812
29.3664,65.4246
29.4098,65.4895
29.4250,65.5660
29.4250,66.1160
29.4098,66.1925
29.3664,66.2574
29.3015,66.3008
29.2250,66.3160
28.8250,66.3160
28.7485,66.3008
28.6836,66.2574
28.6402,66.1925
28.6250,66.1160
Z" /> 
<path style="fill:#000000; fill-opacity:1.0000; stroke:none;fill-rule:evenodd;"
d="M 24.6090,23.7300
24.6090,22.0300
26.3090,22.0300
26.3090,23.7300
Z" /> 
</g>
<g style="fill:#000000; fill-opacity:1.0000; stroke:none;">
<circle cx="27.9990" cy="22.8800" r="0.8500" /> 
<circle cx="25.4590" cy="25.4200" r="0.8500" /> 
<circle cx="27.9990" cy="25.4200" r="0.8500" /> 
<path style="fill:#000000; fill-opacity:1.0000; stroke:none;fill-rule:evenodd;"
d="M 22.9650,63.0560
22.9802,62.9795
23.0236,62.9146
23.0885,62.8712
23.1650,62.8560
23.5650,62.8560
23.6415,62.8712
23.7064,62.9146
23.7498,62.9795
23.7650,63.0560
23.7650,63.6060
23.7498,63.6825
23.7064,63.7474
23.6415,63.7908
23.5650,63.8060
23.1650,63.8060
23.0885,63.7908
23.0236,63.7474
22.9802,63.6825
22.9650,63.6060
Z" /> 
<path style="fill:#000000; fill-opacity:1.0000; stroke:none;fill-rule:evenodd;"
d="M 24.6150,63.0560
24.6302,62.9795
24.6736,62.9146
24.7385,62.8712
24.8150,62.8560
25.2150,62.8560
25.2915,62.8712
25.3564,62.9146
25.3998,62.9795
25.4150,63.0560
25.4150,63.6060
25.3998,63.6825
25.3564,63.7474
25.2915,63.7908
25.2150,63.8060
24.8150,63.8060
24.7385,63.7908
24.6736,63.7474
24.6302,63.6825
24.6150,63.6060
Z" /> 
<path style="fill:#000000; fill-opacity:1.0000; stroke:none;fill-rule:evenodd;"
d="M 38.9000,57.0710
38.9076,57.0327
38.9293,57.0003
38.9617,56.9786
39.0000,56.9710
39.2600,56.9710
39.2983,56.9786
39.3307,57.0003
39.3524,57.0327
39.3600,57.0710
39.3600,57.2710
39.3524,57.3093
39.3307,57.3417
39.2983,57.3634
39.2600,57.3710
39.0000,57.3710
38.9617,57.3634
38.9293,57.3417
38.9076,57.3093
38.9000,57.2710
Z" /> 
<path style="fill:#000000; fill-opacity:1.0000; stroke:none;fill-rule:evenodd;"
d="M 39.5400,57.0710
39.5476,57.0327
39.5693,57.0003
39.6017,56.9786
39.6400,56.9710
39.9000,56.9710
39.9383,56.9786
39.9707,57.0003
39.9924,57.0327
40.0000,57.0710
40.0000,57.2710
39.9924,57.3093
39.9707,57.3417
39.9383,57.3634
39.9000,57.3710
39.6400,57.3710
39.6017,57.3634
39.5693,57.3417
39.5476,57.3093
39.5400,57.2710
Z" /> 
<path style="fill:#000000; fill-opacity:1.0000; stroke:none;fill-rule:evenodd;"
d="M 30.9850,63.0560
31.0002,62.9795
31.0436,62.9146
31.1085,62.8712
31.1850,62.8560
31.5850,62.8560
31.6615,62.8712
31.7264,62.9146
31.7698,62.9795
31.7850,63.0560
31.7850,63.6060
31.7698,63.6825
31.7264,63.7474
31.6615,63.7908
31.5850,63.8060
31.1850,63.8060
31.1085,63.7908
31.0436,63.7474
31.0002,63.6825
30.9850,63.6060
Z" /> 
<path style="fill:#000000; fill-opacity:1.0000; stroke:none;fill-rule:evenodd;"
d="M 32.6350,63.0560
32.6502,62.9795
32.6936,62.9146
32.7585,62.8712
32.8350,62.8560
33.2350,62.8560
33.3115,62.8712
33.3764,62.9146
33.4198,62.9795
33.4350,63.0560
33.4350,63.6060
33.4198,63.6825
33.3764,63.7474
33.3115,63.7908
33.2350,63.8060
32.8350,63.8060
32.7585,63.7908
32.6936,63.7474
32.6502,63.6825
32.6350,63.6060
Z" /> 
<path style="fill:#000000; fill-opacity:1.0000; stroke:none;fill-rule:evenodd;"
d="M 22.9650,60.5460
22.9802,60.4695
23.0236,60.4046
23.0885,60.3612
23.1650,60.3460
23.5650,60.3460
23.6415,60.3612
23.7064,60.4046
23.7498,60.4695
23.7650,60.5460
23.7650,61.0960
23.7498,61.1725
23.7064,61.2374
23.6415,61.2808
23.5650,61.2960
23.1650,61.2960
23.0885,61.2808
23.0236,61.2374
22.9802,61.1725
22.9650,61.0960
Z" /> 
<path style="fill:#000000; fill-opacity:1.0000; stroke:none;fill-rule:evenodd;"
d="M 24.6150,60.5460
24.6302,60.4695
24.6736,60.4046
24.7385,60.3612
24.8150,60.3460
25.2150,60.3460
25.2915,60.3612
25.3564,60.4046
25.3998,60.4695
25.4150,60.5460
25.4150,61.0960
25.3998,61.1725
25.3564,61.2374
25.2915,61.2808
25.2150,61.2960
24.8150,61.2960
24.7385,61.2808
24.6736,61.2374
24.6302,61.1725
24.6150,61.0960
Z" /> 
<path style="fill:#000000; fill-opacity:1.0000; stroke:none;fill-rule:evenodd;"
d="M 15.9040,36.5150
14.5040,36.5150
14.5040,34.7150
15.9040,34.7150
Z" /> 
<path style="fill:#000000; fill-opacity:1.0000; stroke:none;fill-rule:evenodd;"
d="M 15.9040,33.9150
14.5040,33.9150
14.5040,32.1150
15.9040,32.1150
Z" /> 
<path style="fill:#000000; fill-opacity:1.0000; stroke:none;fill-rule:evenodd;"
d="M 17.8040,36.5150
16.4040,36.5150
16.4040,34.7150
17.8040,34.7150
Z" /> 
<path style="fill:#000000; fill-opacity:1.0000; stroke:none;fill-rule:evenodd;"
d="M 17.8040,33.9150
16.4040,33.9150
16.4040,32.1150
17.8040,32.1150
Z" /> 
<path style="fill:#000000; fill-opacity:1.0000; stroke:none;fill-rule:evenodd;"
d="M 23.2190,18.7150
23.1616,18.7036
23.1129,18.6711
23.0804,18.6224
23.0690,18.5650
23.0690,16.9150
23.0804,16.8576
23.1129,16.8089
23.1616,16.7764
23.2190,16.7650
23.5190,16.7650
23.5764,16.7764
23.6251,16.8089
23.6576,16.8576
23.6690,16.9150
23.6690,18.5650
23.6576,18.6224
23.6251,18.6711
23.5764,18.7036
23.5190,18.7150
Z" /> 
<path style="fill:#000000; fill-opacity:1.0000; stroke:none;fill-rule:evenodd;"
d="M 24.4890,18.7150
24.4316,18.7036
24.3829,18.6711
24.3504,18.6224
24.3390,18.5650
24.3390,16.9150
24.3504,16.8576
24.3829,16.8089
24.4316,16.7764
24.4890,16.7650
24.7890,16.7650
24.8464,16.7764
24.8951,16.8089
24.9276,16.8576
24.9390,16.9150
24.9390,18.5650
24.9276,18.6224
24.8951,18.6711
24.8464,18.7036
24.7890,18.7150
Z" /> 
<path style="fill:#000000; fill-opacity:1.0000; stroke:none;fill-rule:evenodd;"
d="M 25.7590,18.7150
25.7016,18.7036
25.6529,18.6711
25.6204,18.6224
25.6090,18.5650
25.6090,16.9150
25.6204,16.8576
25.6529,16.8089
25.7016,16.7764
25.7590,16.7650
26.0590,16.7650
26.1164,16.7764
26.1651,16.8089
26.1976,16.8576
26.2090,16.9150
26.2090,18.5650
26.1976,18.6224
26.1651,18.6711
26.1164,18.7036
26.0590,18.7150
Z" /> 
<path style="fill:#000000; fill-opacity:1.0000; stroke:none;fill-rule:evenodd;"
d="M 27.0290,18.7150
26.9716,18.7036
26.9229,18.6711
26.8904,18.6224
26.8790,18.5650
26.8790,16.9150
26.8904,16.8576
26.9229,16.8089
26.9716,16.7764
27.0290,16.7650
27.3290,16.7650
27.3864,16.7764
27.4351,16.8089
27.4676,16.8576
27.4790,16.9150
27.4790,18.5650
27.4676,18.6224
27.4351,18.6711
27.3864,18.7036
27.3290,18.7150
Z" /> 
<path style="fill:#000000; fill-opacity:1.0000; stroke:none;fill-rule:evenodd;"
d="M 27.0290,13.7650
26.9716,13.7536
26.9229,13.7211
26.8904,13.6724
26.8790,13.6150
26.8790,11.9650
26.8904,11.9076
26.9229,11.8589
26.9716,11.8264
27.0290,11.8150
27.3290,11.8150
27.3864,11.8264
27.4351,11.8589
27.4676,11.9076
27.4790,11.9650
27.4790,13.6150
27.4676,13.6724
27.4351,13.7211
27.3864,13.7536
27.3290,13.7650
Z" /> 
<path style="fill:#000000; fill-opacity:1.0000; stroke:none;fill-rule:evenodd;"
d="M 25.7590,13.7650
25.7016,13.7536
25.6529,13.7211
25.6204,13.6724
25.6090,13.6150
25.6090,11.9650
25.6204,11.9076
25.6529,11.8589
25.7016,11.8264
25.7590,11.8150
26.0590,11.8150
26.1164,11.8264
26.1651,11.8589
26.1976,11.9076
26.2090,11.9650
26.2090,13.6150
26.1976,13.6724
26.1651,13.7211
26.1164,13.7536
26.0590,13.7650
Z" /> 
<path style="fill:#000000; fill-opacity:1.0000; stroke:none;fill-rule:evenodd;"
d="M 24.4890,13.7650
24.4316,13.7536
24.3829,13.7211
24.3504,13.6724
24.3390,13.6150
24.3390,11.9650
24.3504,11.9076
24.3829,11.8589
24.4316,11.8264
24.4890,11.8150
24.7890,11.8150
24.8464,11.8264
24.8951,11.8589
24.9276,11.9076
24.9390,11.9650
24.9390,13.6150
24.9276,13.6724
24.8951,13.7211
24.8464,13.7536
24.7890,13.7650
Z" /> 
<path style="fill:#000000; fill-opacity:1.0000; stroke:none;fill-rule:evenodd;"
d="M 23.2190,13.7650
23.1616,13.7536
23.1129,13.7211
23.0804,13.6724
23.0690,13.6150
23.0690,11.9650
23.0804,11.9076
23.1129,11.8589
23.1616,11.8264
23.2190,11.8150
23.5190,11.8150
23.5764,11.8264
23.6251,11.8589
23.6576,11.9076
23.6690,11.9650
23.6690,13.6150
23.6576,13.6724
23.6251,13.7211
23.5764,13.7536
23.5190,13.7650
Z" /> 
<path style="fill:#000000; fill-opacity:1.0000; stroke:none;fill-rule:evenodd;"
d="M 38.9000,58.8210
38.9076,58.7827
38.9293,58.7503
38.9617,58.7286
39.0000,58.7210
39.2600,58.7210
39.2983,58.7286
39.3307,58.7503
39.3524,58.7827
39.3600,58.8210
39.3600,59.0210
39.3524,59.0593
39.3307,59.0917
39.2983,59.1134
39.2600,59.1210
39.0000,59.1210
38.9617,59.1134
38.9293,59.0917
38.9076,59.0593
38.9000,59.0210
Z" /> 
<path style="fill:#000000; fill-opacity:1.0000; stroke:none;fill-rule:evenodd;"
d="M 39.5400,58.8210
39.5476,58.7827
39.5693,58.7503
39.6017,58.7286
39.6400,58.7210
39.9000,58.7210
39.9383,58.7286
39.9707,58.7503
39.9924,58.7827
40.0000,58.8210
40.0000,59.0210
39.9924,59.0593
39.9707,59.0917
39.9383,59.1134
39.9000,59.1210
39.6400,59.1210
39.6017,59.1134
39.5693,59.0917
39.5476,59.0593
39.5400,59.0210
Z" /> 
<path style="fill:#000000; fill-opacity:1.0000; stroke:none;fill-rule:evenodd;"
d="M 38.9000,60.5710
38.9076,60.5327
38.9293,60.5003
38.9617,60.4786
39.0000,60.4710
39.2600,60.4710
39.2983,60.4786
39.3307,60.5003
39.3524,60.5327
39.3600,60.5710
39.3600,60.7710
39.3524,60.8093
39.3307,60.8417
39.2983,60.8634
39.2600,60.8710
39.0000,60.8710
38.9617,60.8634
38.9293,60.8417
38.9076,60.8093
38.9000,60.7710
Z" /> 
<path style="fill:#000000; fill-opacity:1.0000; stroke:none;fill-rule:evenodd;"
d="M 39.5400,60.5710
39.5476,60.5327
39.5693,60.5003
39.6017,60.4786
39.6400,60.4710
39.9000,60.4710
39.9383,60.4786
39.9707,60.5003
39.9924,60.5327
40.0000,60.5710
40.0000,60.7710
39.9924,60.8093
39.9707,60.8417
39.9383,60.8634
39.9000,60.8710
39.6400,60.8710
39.6017,60.8634
39.5693,60.8417
39.5476,60.8093
39.5400,60.7710
Z" /> 
<path style="fill:#000000; fill-opacity:1.0000; stroke:none;fill-rule:evenodd;"
d="M 22.9650,58.0360
22.9802,57.9595
23.0236,57.8946
23.0885,57.8512
23.1650,57.8360
23.5650,57.8360
23.6415,57.8512
23.7064,57.8946
23.7498,57.9595
23.7650,58.0360
23.7650,58.5860
23.7498,58.6625
23.7064,58.7274
23.6415,58.7708
23.5650,58.7860
23.1650,58.7860
23.0885,58.7708
23.0236,58.7274
22.9802,58.6625
22.9650,58.5860
Z" /> 
<path style="fill:#000000; fill-opacity:1.0000; stroke:none;fill-rule:evenodd;"
d="M 24.6150,58.0360
24.6302,57.9595
24.6736,57.8946
24.7385,57.8512
24.8150,57.8360
25.2150,57.8360
25.2915,57.8512
25.3564,57.8946
25.3998,57.9595
25.4150,58.0360
25.4150,58.5860
25.3998,58.6625
25.3564,58.7274
25.2915,58.7708
25.2150,58.7860
24.8150,58.7860
24.7385,58.7708
24.6736,58.7274
24.6302,58.6625
24.6150,58.5860
Z" /> 
<path style="fill:#000000; fill-opacity:1.0000; stroke:none;fill-rule:evenodd;"
d="M 22.9650,55.5260
22.9802,55.4495
23.0236,55.3846
23.0885,55.3412
23.1650,55.3260
23.5650,55.3260
23.6415,55.3412
23.7064,55.3846
23.7498,55.4495
23.7650,55.5260
23.7650,56.0760
23.7498,56.1525
23.7064,56.2174
23.6415,56.2608
23.5650,56.2760
23.1650,56.2760
23.0885,56.2608
23.0236,56.2174
22.9802,56.1525
22.9650,56.0760
Z" /> 
<path style="fill:#000000; fill-opacity:1.0000; stroke:none;fill-rule:evenodd;"
d="M 24.6150,55.5260
24.6302,55.4495
24.6736,55.3846
24.7385,55.3412
24.8150,55.3260
25.2150,55.3260
25.2915,55.3412
25.3564,55.3846
25.3998,55.4495
25.4150,55.5260
25.4150,56.0760
25.3998,56.1525
25.3564,56.2174
25.2915,56.2608
25.2150,56.2760
24.8150,56.2760
24.7385,56.2608
24.6736,56.2174
24.6302,56.1525
24.6150,56.0760
Z" /> 
<circle cx="30.1240" cy="3.8350" r="1.4000" /> 
</g>
<g style="fill:#000000; fill-opacity:1.0000; stroke:none;">
<circle cx="45.3640" cy="3.8350" r="1.4000" /> 
<path style="fill:#000000; fill-opacity:1.0000; stroke:none;fill-rule:evenodd;"
d="M 30.9850,55.5260
31.0002,55.4495
31.0436,55.3846
31.1085,55.3412
31.1850,55.3260
31.5850,55.3260
31.6615,55.3412
31.7264,55.3846
31.7698,55.4495
31.7850,55.5260
31.7850,56.0760
31.7698,56.1525
31.7264,56.2174
31.6615,56.2608
31.5850,56.2760
31.1850,56.2760
31.1085,56.2608
31.0436,56.2174
31.0002,56.1525
30.9850,56.0760
Z" /> 
<path style="fill:#000000; fill-opacity:1.0000; stroke:none;fill-rule:evenodd;"
d="M 32.6350,55.5260
32.6502,55.4495
32.6936,55.3846
32.7585,55.3412
32.8350,55.3260
33.2350,55.3260
33.3115,55.3412
33.3764,55.3846
33.4198,55.4495
33.4350,55.5260
33.4350,56.0760
33.4198,56.1525
33.3764,56.2174
33.3115,56.2608
33.2350,56.2760
32.8350,56.2760
32.7585,56.2608
32.6936,56.2174
32.6502,56.1525
32.6350,56.0760
Z" /> 
</g>
<g style="fill:#000000; fill-opacity:1.0000; stroke:none;">
<circle cx="63.1440" cy="4.4700" r="2.7500" /> 
</g>
<g style="fill:#000000; fill-opacity:1.0000; stroke:none;">
<circle cx="63.1440" cy="4.4700" r="1.8000" /> 
<path style="fill:#000000; fill-opacity:1.0000; stroke:none;fill-rule:evenodd;"
d="M 30.9850,60.5460
31.0002,60.4695
31.0436,60.4046
31.1085,60.3612
31.1850,60.3460
31.5850,60.3460
31.6615,60.3612
31.7264,60.4046
31.7698,60.4695
31.7850,60.5460
31.7850,61.0960
31.7698,61.1725
31.7264,61.2374
31.6615,61.2808
31.5850,61.2960
31.1850,61.2960
31.1085,61.2808
31.0436,61.2374
31.0002,61.1725
30.9850,61.0960
Z" /> 
<path style="fill:#000000; fill-opacity:1.0000; stroke:none;fill-rule:evenodd;"
d="M 32.6350,60.5460
32.6502,60.4695
32.6936,60.4046
32.7585,60.3612
32.8350,60.3460
33.2350,60.3460
33.3115,60.3612
33.3764,60.4046
33.4198,60.4695
33.4350,60.5460
33.4350,61.0960
33.4198,61.1725
33.3764,61.2374
33.3115,61.2808
33.2350,61.2960
32.8350,61.2960
32.7585,61.2808
32.6936,61.2374
32.6502,61.1725
32.6350,61.0960
Z" /> 
</g>
<g style="fill:#000000; fill-opacity:1.0000; stroke:none;">
<circle cx="4.7240" cy="36.2200" r="1.8000" /> 
</g>
<g style="fill:#000000; fill-opacity:1.0000; stroke:none;">
<circle cx="4.7240" cy="36.2200" r="2.7500" /> 
<path style="fill:#000000; fill-opacity:1.0000; stroke:none;fill-rule:evenodd;"
d="M 17.4090,23.7300
17.4090,22.0300
19.1090,22.0300
19.1090,23.7300
Z" /> 
</g>
<g style="fill:#000000; fill-opacity:1.0000; stroke:none;">
<circle cx="20.7990" cy="22.8800" r="0.8500" /> 
<circle cx="18.2590" cy="25.4200" r="0.8500" /> 
<circle cx="20.7990" cy="25.4200" r="0.8500" /> 
<path style="fill:#000000; fill-opacity:1.0000; stroke:none;fill-rule:evenodd;"
d="M 20.7480,36.7690
19.3480,36.7690
19.3480,34.9690
20.7480,34.9690
Z" /> 
<path style="fill:#000000; fill-opacity:1.0000; stroke:none;fill-rule:evenodd;"
d="M 20.7480,34.1690
19.3480,34.1690
19.3480,32.3690
20.7480,32.3690
Z" /> 
<path style="fill:#000000; fill-opacity:1.0000; stroke:none;fill-rule:evenodd;"
d="M 22.6480,36.7690
21.2480,36.7690
21.2480,34.9690
22.6480,34.9690
Z" /> 
<path style="fill:#000000; fill-opacity:1.0000; stroke:none;fill-rule:evenodd;"
d="M 22.6480,34.1690
21.2480,34.1690
21.2480,32.3690
22.6480,32.3690
Z" /> 
<path style="fill:#000000; fill-opacity:1.0000; stroke:none;fill-rule:evenodd;"
d="M 34.9950,68.0760
35.0102,67.9995
35.0536,67.9346
35.1185,67.8912
35.1950,67.8760
35.5950,67.8760
35.6715,67.8912
35.7364,67.9346
35.7798,67.9995
35.7950,68.0760
35.7950,68.6260
35.7798,68.7025
35.7364,68.7674
35.6715,68.8108
35.5950,68.8260
35.1950,68.8260
35.1185,68.8108
35.0536,68.7674
35.0102,68.7025
34.9950,68.6260
Z" /> 
<path style="fill:#000000; fill-opacity:1.0000; stroke:none;fill-rule:evenodd;"
d="M 36.6450,68.0760
36.6602,67.9995
36.7036,67.9346
36.7685,67.8912
36.8450,67.8760
37.2450,67.8760
37.3215,67.8912
37.3864,67.9346
37.4298,67.9995
37.4450,68.0760
37.4450,68.6260
37.4298,68.7025
37.3864,68.7674
37.3215,68.8108
37.2450,68.8260
36.8450,68.8260
36.7685,68.8108
36.7036,68.7674
36.6602,68.7025
36.6450,68.6260
Z" /> 
<path style="fill:#000000; fill-opacity:1.0000; stroke:none;fill-rule:evenodd;"
d="M 16.6390,18.7150
16.5816,18.7036
16.5329,18.6711
16.5004,18.6224
16.4890,18.5650
16.4890,16.9150
16.5004,16.8576
16.5329,16.8089
16.5816,16.7764
16.6390,16.7650
16.9390,16.7650
16.9964,16.7764
17.0451,16.8089
17.0776,16.8576
17.0890,16.9150
17.0890,18.5650
17.0776,18.6224
17.0451,18.6711
16.9964,18.7036
16.9390,18.7150
Z" /> 
<path style="fill:#000000; fill-opacity:1.0000; stroke:none;fill-rule:evenodd;"
d="M 17.9090,18.7150
17.8516,18.7036
17.8029,18.6711
17.7704,18.6224
17.7590,18.5650
17.7590,16.9150
17.7704,16.8576
17.8029,16.8089
17.8516,16.7764
17.9090,16.7650
18.2090,16.7650
18.2664,16.7764
18.3151,16.8089
18.3476,16.8576
18.3590,16.9150
18.3590,18.5650
18.3476,18.6224
18.3151,18.6711
18.2664,18.7036
18.2090,18.7150
Z" /> 
<path style="fill:#000000; fill-opacity:1.0000; stroke:none;fill-rule:evenodd;"
d="M 19.1790,18.7150
19.1216,18.7036
19.0729,18.6711
19.0404,18.6224
19.0290,18.5650
19.0290,16.9150
19.0404,16.8576
19.0729,16.8089
19.1216,16.7764
19.1790,16.7650
19.4790,16.7650
19.5364,16.7764
19.5851,16.8089
19.6176,16.8576
19.6290,16.9150
19.6290,18.5650
19.6176,18.6224
19.5851,18.6711
19.5364,18.7036
19.4790,18.7150
Z" /> 
<path style="fill:#000000; fill-opacity:1.0000; stroke:none;fill-rule:evenodd;"
d="M 20.4490,18.7150
20.3916,18.7036
20.3429,18.6711
20.3104,18.6224
20.2990,18.5650
20.2990,16.9150
20.3104,16.8576
20.3429,16.8089
20.3916,16.7764
20.4490,16.7650
20.7490,16.7650
20.8064,16.7764
20.8551,16.8089
20.8876,16.8576
20.8990,16.9150
20.8990,18.5650
20.8876,18.6224
20.8551,18.6711
20.8064,18.7036
20.7490,18.7150
Z" /> 
<path style="fill:#000000; fill-opacity:1.0000; stroke:none;fill-rule:evenodd;"
d="M 20.4490,13.7650
20.3916,13.7536
20.3429,13.7211
20.3104,13.6724
20.2990,13.6150
20.2990,11.9650
20.3104,11.9076
20.3429,11.8589
20.3916,11.8264
20.4490,11.8150
20.7490,11.8150
20.8064,11.8264
20.8551,11.8589
20.8876,11.9076
20.8990,11.9650
20.8990,13.6150
20.8876,13.6724
20.8551,13.7211
20.8064,13.7536
20.7490,13.7650
Z" /> 
<path style="fill:#000000; fill-opacity:1.0000; stroke:none;fill-rule:evenodd;"
d="M 19.1790,13.7650
19.1216,13.7536
19.0729,13.7211
19.0404,13.6724
19.0290,13.6150
19.0290,11.9650
19.0404,11.9076
19.0729,11.8589
19.1216,11.8264
19.1790,11.8150
19.4790,11.8150
19.5364,11.8264
19.5851,11.8589
19.6176,11.9076
19.6290,11.9650
19.6290,13.6150
19.6176,13.6724
19.5851,13.7211
19.5364,13.7536
19.4790,13.7650
Z" /> 
<path style="fill:#000000; fill-opacity:1.0000; stroke:none;fill-rule:evenodd;"
d="M 17.9090,13.7650
17.8516,13.7536
17.8029,13.7211
17.7704,13.6724
17.7590,13.6150
17.7590,11.9650
17.7704,11.9076
17.8029,11.8589
17.8516,11.8264
17.9090,11.8150
18.2090,11.8150
18.2664,11.8264
18.3151,11.8589
18.3476,11.9076
18.3590,11.9650
18.3590,13.6150
18.3476,13.6724
18.3151,13.7211
18.2664,13.7536
18.2090,13.7650
Z" /> 
<path style="fill:#000000; fill-opacity:1.0000; stroke:none;fill-rule:evenodd;"
d="M 16.6390,13.7650
16.5816,13.7536
16.5329,13.7211
16.5004,13.6724
16.4890,13.6150
16.4890,11.9650
16.5004,11.9076
16.5329,11.8589
16.5816,11.8264
16.6390,11.8150
16.9390,11.8150
16.9964,11.8264
17.0451,11.8589
17.0776,11.9076
17.0890,11.9650
17.0890,13.6150
17.0776,13.6724
17.0451,13.7211
16.9964,13.7536
16.9390,13.7650
Z" /> 
<path style="fill:#000000; fill-opacity:1.0000; stroke:none;fill-rule:evenodd;"
d="M 26.9750,68.0760
26.9902,67.9995
27.0336,67.9346
27.0985,67.8912
27.1750,67.8760
27.5750,67.8760
27.6515,67.8912
27.7164,67.9346
27.7598,67.9995
27.7750,68.0760
27.7750,68.6260
27.7598,68.7025
27.7164,68.7674
27.6515,68.8108
27.5750,68.8260
27.1750,68.8260
27.0985,68.8108
27.0336,68.7674
26.9902,68.7025
26.9750,68.6260
Z" /> 
<path style="fill:#000000; fill-opacity:1.0000; stroke:none;fill-rule:evenodd;"
d="M 28.6250,68.0760
28.6402,67.9995
28.6836,67.9346
28.7485,67.8912
28.8250,67.8760
29.2250,67.8760
29.3015,67.8912
29.3664,67.9346
29.4098,67.9995
29.4250,68.0760
29.4250,68.6260
29.4098,68.7025
29.3664,68.7674
29.3015,68.8108
29.2250,68.8260
28.8250,68.8260
28.7485,68.8108
28.6836,68.7674
28.6402,68.7025
28.6250,68.6260
Z" /> 
<path style="fill:#000000; fill-opacity:1.0000; stroke:none;fill-rule:evenodd;"
d="M 26.9750,63.0560
26.9902,62.9795
27.0336,62.9146
27.0985,62.8712
27.1750,62.8560
27.5750,62.8560
27.6515,62.8712
27.7164,62.9146
27.7598,62.9795
27.7750,63.0560
27.7750,63.6060
27.7598,63.6825
27.7164,63.7474
27.6515,63.7908
27.5750,63.8060
27.1750,63.8060
27.0985,63.7908
27.0336,63.7474
26.9902,63.6825
26.9750,63.6060
Z" /> 
<path style="fill:#000000; fill-opacity:1.0000; stroke:none;fill-rule:evenodd;"
d="M 28.6250,63.0560
28.6402,62.9795
28.6836,62.9146
28.7485,62.8712
28.8250,62.8560
29.2250,62.8560
29.3015,62.8712
29.3664,62.9146
29.4098,62.9795
29.4250,63.0560
29.4250,63.6060
29.4098,63.6825
29.3664,63.7474
29.3015,63.7908
29.2250,63.8060
28.8250,63.8060
28.7485,63.7908
28.6836,63.7474
28.6402,63.6825
28.6250,63.6060
Z" /> 
<path style="fill:#000000; fill-opacity:1.0000; stroke:none;fill-rule:evenodd;"
d="M 31.8090,23.7300
31.8090,22.0300
33.5090,22.0300
33.5090,23.7300
Z" /> 
<circle cx="35.1990" cy="22.8800" r="0.8500" /> 
<circle cx="32.6590" cy="25.4200" r="0.8500" /> 
<circle cx="35.1990" cy="25.4200" r="0.8500" /> 
<path style="fill:#000000; fill-opacity:1.0000; stroke:none;fill-rule:evenodd;"
d="M 10.2090,23.7300
10.2090,22.0300
11.9090,22.0300
11.9090,23.7300
Z" /> 
<circle cx="13.5990" cy="22.8800" r="0.8500" /> 
<circle cx="11.0590" cy="25.4200" r="0.8500" /> 
<circle cx="13.5990" cy="25.4200" r="0.8500" /> 
<path style="fill:#000000; fill-opacity:1.0000; stroke:none;fill-rule:evenodd;"
d="M 34.9950,58.0360
35.0102,57.9595
35.0536,57.8946
35.1185,57.8512
35.1950,57.8360
35.5950,57.8360
35.6715,57.8512
35.7364,57.8946
35.7798,57.9595
35.7950,58.0360
35.7950,58.5860
35.7798,58.6625
35.7364,58.7274
35.6715,58.7708
35.5950,58.7860
35.1950,58.7860
35.1185,58.7708
35.0536,58.7274
35.0102,58.6625
34.9950,58.5860
Z" /> 
<path style="fill:#000000; fill-opacity:1.0000; stroke:none;fill-rule:evenodd;"
d="M 36.6450,58.0360
36.6602,57.9595
36.7036,57.8946
36.7685,57.8512
36.8450,57.8360
37.2450,57.8360
37.3215,57.8512
37.3864,57.8946
37.4298,57.9595
37.4450,58.0360
37.4450,58.5860
37.4298,58.6625
37.3864,58.7274
37.3215,58.7708
37.2450,58.7860
36.8450,58.7860
36.7685,58.7708
36.7036,58.7274
36.6602,58.6625
36.6450,58.5860
Z" /> 
<path style="fill:#000000; fill-opacity:1.0000; stroke:none;fill-rule:evenodd;"
d="M 55.8470,26.2790
55.8280,26.3747
55.7738,26.4558
55.6927,26.5100
55.5970,26.5290
54.3970,26.5290
54.3013,26.5100
54.2202,26.4558
54.1660,26.3747
54.1470,26.2790
54.1470,25.0790
54.1660,24.9833
54.2202,24.9022
54.3013,24.8480
54.3970,24.8290
55.5970,24.8290
55.6927,24.8480
55.7738,24.9022
55.8280,24.9833
55.8470,25.0790
Z" /> 
<circle cx="52.4570" cy="25.6790" r="0.8500" /> 
</g>
<g style="fill:#000000; fill-opacity:1.0000; stroke:none;">
<circle cx="54.9970" cy="23.1390" r="0.8500" /> 
</g>
<g style="fill:#000000; fill-opacity:1.0000; stroke:none;">
<circle cx="52.4570" cy="23.1390" r="0.8500" /> 
</g>
<g style="fill:#000000; fill-opacity:1.0000; stroke:none;">
<circle cx="54.9970" cy="20.5990" r="0.8500" /> 
</g>
<g style="fill:#000000; fill-opacity:1.0000; stroke:none;">
<circle cx="52.4570" cy="20.5990" r="0.8500" /> 
</g>
<g style="fill:#000000; fill-opacity:1.0000; stroke:none;">
<circle cx="54.9970" cy="18.0590" r="0.8500" /> 
</g>
<g style="fill:#000000; fill-opacity:1.0000; stroke:none;">
<circle cx="52.4570" cy="18.0590" r="0.8500" /> 
</g>
<g style="fill:#000000; fill-opacity:1.0000; stroke:none;">
<circle cx="54.9970" cy="15.5190" r="0.8500" /> 
</g>
<g style="fill:#000000; fill-opacity:1.0000; stroke:none;">
<circle cx="52.4570" cy="15.5190" r="0.8500" /> 
</g>
<g style="fill:#000000; fill-opacity:1.0000; stroke:none;">
<circle cx="63.1440" cy="36.3470" r="1.8000" /> 
</g>
<g style="fill:#000000; fill-opacity:1.0000; stroke:none;">
<circle cx="63.1440" cy="36.3470" r="2.7500" /> 
<path style="fill:#000000; fill-opacity:1.0000; stroke:none;fill-rule:evenodd;"
d="M 34.9950,60.5460
35.0102,60.4695
35.0536,60.4046
35.1185,60.3612
35.1950,60.3460
35.5950,60.3460
35.6715,60.3612
35.7364,60.4046
35.7798,60.4695
35.7950,60.5460
35.7950,61.0960
35.7798,61.1725
35.7364,61.2374
35.6715,61.2808
35.5950,61.2960
35.1950,61.2960
35.1185,61.2808
35.0536,61.2374
35.0102,61.1725
34.9950,61.0960
Z" /> 
<path style="fill:#000000; fill-opacity:1.0000; stroke:none;fill-rule:evenodd;"
d="M 36.6450,60.5460
36.6602,60.4695
36.7036,60.4046
36.7685,60.3612
36.8450,60.3460
37.2450,60.3460
37.3215,60.3612
37.3864,60.4046
37.4298,60.4695
37.4450,60.5460
37.4450,61.0960
37.4298,61.1725
37.3864,61.2374
37.3215,61.2808
37.2450,61.2960
36.8450,61.2960
36.7685,61.2808
36.7036,61.2374
36.6602,61.1725
36.6450,61.0960
Z" /> 
<path style="fill:#000000; fill-opacity:1.0000; stroke:none;fill-rule:evenodd;"
d="M 22.9650,68.0760
22.9802,67.9995
23.0236,67.9346
23.0885,67.8912
23.1650,67.8760
23.5650,67.8760
23.6415,67.8912
23.7064,67.9346
23.7498,67.9995
23.7650,68.0760
23.7650,68.6260
23.7498,68.7025
23.7064,68.7674
23.6415,68.8108
23.5650,68.8260
23.1650,68.8260
23.0885,68.8108
23.0236,68.7674
22.9802,68.7025
22.9650,68.6260
Z" /> 
<path style="fill:#000000; fill-opacity:1.0000; stroke:none;fill-rule:evenodd;"
d="M 24.6150,68.0760
24.6302,67.9995
24.6736,67.9346
24.7385,67.8912
24.8150,67.8760
25.2150,67.8760
25.2915,67.8912
25.3564,67.9346
25.3998,67.9995
25.4150,68.0760
25.4150,68.6260
25.3998,68.7025
25.3564,68.7674
25.2915,68.8108
25.2150,68.8260
24.8150,68.8260
24.7385,68.8108
24.6736,68.7674
24.6302,68.7025
24.6150,68.6260
Z" /> 
<path style="fill:#000000; fill-opacity:1.0000; stroke:none;fill-rule:evenodd;"
d="M 26.9750,58.0360
26.9902,57.9595
27.0336,57.8946
27.0985,57.8512
27.1750,57.8360
27.5750,57.8360
27.6515,57.8512
27.7164,57.8946
27.7598,57.9595
27.7750,58.0360
27.7750,58.5860
27.7598,58.6625
27.7164,58.7274
27.6515,58.7708
27.5750,58.7860
27.1750,58.7860
27.0985,58.7708
27.0336,58.7274
26.9902,58.6625
26.9750,58.5860
Z" /> 
<path style="fill:#000000; fill-opacity:1.0000; stroke:none;fill-rule:evenodd;"
d="M 28.6250,58.0360
28.6402,57.9595
28.6836,57.8946
28.7485,57.8512
28.8250,57.8360
29.2250,57.8360
29.3015,57.8512
29.3664,57.8946
29.4098,57.9595
29.4250,58.0360
29.4250,58.5860
29.4098,58.6625
29.3664,58.7274
29.3015,58.7708
29.2250,58.7860
28.8250,58.7860
28.7485,58.7708
28.6836,58.7274
28.6402,58.6625
28.6250,58.5860
Z" /> 
</g>
<g style="fill:#000000; fill-opacity:1.0000; stroke:none;">
<circle cx="14.8840" cy="3.8350" r="1.4000" /> 
<path style="fill:#000000; fill-opacity:1.0000; stroke:none;fill-rule:evenodd;"
d="M 34.9950,65.5660
35.0102,65.4895
35.0536,65.4246
35.1185,65.3812
35.1950,65.3660
35.5950,65.3660
35.6715,65.3812
35.7364,65.4246
35.7798,65.4895
35.7950,65.5660
35.7950,66.1160
35.7798,66.1925
35.7364,66.2574
35.6715,66.3008
35.5950,66.3160
35.1950,66.3160
35.1185,66.3008
35.0536,66.2574
35.0102,66.1925
34.9950,66.1160
Z" /> 
<path style="fill:#000000; fill-opacity:1.0000; stroke:none;fill-rule:evenodd;"
d="M 36.6450,65.5660
36.6602,65.4895
36.7036,65.4246
36.7685,65.3812
36.8450,65.3660
37.2450,65.3660
37.3215,65.3812
37.3864,65.4246
37.4298,65.4895
37.4450,65.5660
37.4450,66.1160
37.4298,66.1925
37.3864,66.2574
37.3215,66.3008
37.2450,66.3160
36.8450,66.3160
36.7685,66.3008
36.7036,66.2574
36.6602,66.1925
36.6450,66.1160
Z" /> 
<path style="fill:#000000; fill-opacity:1.0000; stroke:none;fill-rule:evenodd;"
d="M 29.3480,36.7690
27.9480,36.7690
27.9480,34.9690
29.3480,34.9690
Z" /> 
<path style="fill:#000000; fill-opacity:1.0000; stroke:none;fill-rule:evenodd;"
d="M 29.3480,34.1690
27.9480,34.1690
27.9480,32.3690
29.3480,32.3690
Z" /> 
<path style="fill:#000000; fill-opacity:1.0000; stroke:none;fill-rule:evenodd;"
d="M 31.2480,36.7690
29.8480,36.7690
29.8480,34.9690
31.2480,34.9690
Z" /> 
<path style="fill:#000000; fill-opacity:1.0000; stroke:none;fill-rule:evenodd;"
d="M 31.2480,34.1690
29.8480,34.1690
29.8480,32.3690
31.2480,32.3690
Z" /> 
</g>
<g style="fill:#000000; fill-opacity:1.0000; stroke:none;">
<circle cx="22.5040" cy="3.8350" r="1.4000" /> 
</g>
<g style="fill:#000000; fill-opacity:1.0000; stroke:none;">
<circle cx="4.7240" cy="29.2500" r="0.8500" /> 
<circle cx="4.7240" cy="26.7100" r="0.8500" /> 
<circle cx="4.7240" cy="24.1700" r="0.8500" /> 
<circle cx="4.7240" cy="21.6300" r="0.8500" /> 
<circle cx="4.7240" cy="19.0900" r="0.8500" /> 
<circle cx="4.7240" cy="16.5500" r="0.8500" /> 
<circle cx="4.7240" cy="14.0100" r="0.8500" /> 
<path style="fill:#000000; fill-opacity:1.0000; stroke:none;fill-rule:evenodd;"
d="M 3.8740,12.3200
3.8740,10.6200
5.5740,10.6200
5.5740,12.3200
Z" /> 
<circle cx="63.1440" cy="29.2500" r="0.8500" /> 
<circle cx="63.1440" cy="26.7100" r="0.8500" /> 
<circle cx="63.1440" cy="24.1700" r="0.8500" /> 
<circle cx="63.1440" cy="21.6300" r="0.8500" /> 
<circle cx="63.1440" cy="19.0900" r="0.8500" /> 
<circle cx="63.1440" cy="16.5500" r="0.8500" /> 
<circle cx="63.1440" cy="14.0100" r="0.8500" /> 
<path style="fill:#000000; fill-opacity:1.0000; stroke:none;fill-rule:evenodd;"
d="M 62.2940,12.3200
62.2940,10.6200
63.9940,10.6200
63.9940,12.3200
Z" /> 
<circle cx="4.7240" cy="5.1050" r="1.8000" /> 
</g>
<g style="fill:#000000; fill-opacity:1.0000; stroke:none;">
<circle cx="4.7240" cy="5.1050" r="2.7500" /> 
</g>
<g style="fill:#000000; fill-opacity:1.0000; stroke:none;">
<circle cx="52.9840" cy="3.8350" r="1.4000" /> 
</g>
<g style="fill:#000000; fill-opacity:1.0000; stroke:none;">
<circle cx="37.7440" cy="3.8350" r="1.4000" /> 
</g>
<g style="fill:#FFFFFF; fill-opacity:1.0000; stroke:none;">
<circle cx="43.5765" cy="33.0450" r="0.5000" /> 
</g>
<g style="fill:#FFFFFF; fill-opacity:1.0000; stroke:none;">
<circle cx="41.0365" cy="33.0450" r="0.5000" /> 
</g>
<g style="fill:#FFFFFF; fill-opacity:1.0000; stroke:none;">
<circle cx="43.5765" cy="30.5050" r="0.5000" /> 
</g>
<g style="fill:#FFFFFF; fill-opacity:1.0000; stroke:none;">
<circle cx="41.0365" cy="30.5050" r="0.5000" /> 
</g>
<g style="fill:#FFFFFF; fill-opacity:1.0000; stroke:none;">
<circle cx="43.5765" cy="27.9650" r="0.5000" /> 
</g>
<g style="fill:#FFFFFF; fill-opacity:1.0000; stroke:none;">
<circle cx="41.0365" cy="27.9650" r="0.5000" /> 
</g>
<g style="fill:#FFFFFF; fill-opacity:1.0000; stroke:none;">
<circle cx="43.5765" cy="25.4250" r="0.5000" /> 
</g>
<g style="fill:#FFFFFF; fill-opacity:1.0000; stroke:none;">
<circle cx="41.0365" cy="25.4250" r="0.5000" /> 
</g>
<g style="fill:#FFFFFF; fill-opacity:1.0000; stroke:none;">
<circle cx="43.5765" cy="22.8850" r="0.5000" /> 
</g>
<g style="fill:#FFFFFF; fill-opacity:1.0000; stroke:none;">
<circle cx="41.0365" cy="22.8850" r="0.5000" /> 
</g>
<g style="fill:#FFFFFF; fill-opacity:1.0000; stroke:none;">
<circle cx="43.5765" cy="20.3450" r="0.5000" /> 
</g>
<g style="fill:#FFFFFF; fill-opacity:1.0000; stroke:none;">
<circle cx="41.0365" cy="20.3450" r="0.5000" /> 
</g>
<g style="fill:#FFFFFF; fill-opacity:1.0000; stroke:none;">
<circle cx="43.5765" cy="17.8050" r="0.5000" /> 
</g>
<g style="fill:#FFFFFF; fill-opacity:1.0000; stroke:none;">
<circle cx="41.0365" cy="17.8050" r="0.5000" /> 
</g>
<g style="fill:#FFFFFF; fill-opacity:1.0000; stroke:none;">
<circle cx="43.5765" cy="15.2650" r="0.5000" /> 
</g>
<g style="fill:#FFFFFF; fill-opacity:1.0000; stroke:none;">
<circle cx="41.0365" cy="15.2650" r="0.5000" /> 
</g>
<g style="fill:#FFFFFF; fill-opacity:1.0000; stroke:none;">
<circle cx="25.4590" cy="22.8800" r="0.5000" /> 
</g>
<g style="fill:#FFFFFF; fill-opacity:1.0000; stroke:none;">
<circle cx="27.9990" cy="22.8800" r="0.5000" /> 
</g>
<g style="fill:#FFFFFF; fill-opacity:1.0000; stroke:none;">
<circle cx="25.4590" cy="25.4200" r="0.5000" /> 
</g>
<g style="fill:#FFFFFF; fill-opacity:1.0000; stroke:none;">
<circle cx="27.9990" cy="25.4200" r="0.5000" /> 
</g>
<g style="fill:#FFFFFF; fill-opacity:1.0000; stroke:none;">
<circle cx="30.1240" cy="3.8350" r="0.7000" /> 
</g>
<g style="fill:#FFFFFF; fill-opacity:1.0000; stroke:none;">
<circle cx="45.3640" cy="3.8350" r="0.7000" /> 
</g>
<g style="fill:#FFFFFF; fill-opacity:1.0000; stroke:none;">
<circle cx="63.1440" cy="4.4700" r="1.6000" /> 
</g>
<g style="fill:#FFFFFF; fill-opacity:1.0000; stroke:none;">
<circle cx="4.7240" cy="36.2200" r="1.6000" /> 
</g>
<g style="fill:#FFFFFF; fill-opacity:1.0000; stroke:none;">
<circle cx="18.2590" cy="22.8800" r="0.5000" /> 
</g>
<g style="fill:#FFFFFF; fill-opacity:1.0000; stroke:none;">
<circle cx="20.7990" cy="22.8800" r="0.5000" /> 
</g>
<g style="fill:#FFFFFF; fill-opacity:1.0000; stroke:none;">
<circle cx="18.2590" cy="25.4200" r="0.5000" /> 
</g>
<g style="fill:#FFFFFF; fill-opacity:1.0000; stroke:none;">
<circle cx="20.7990" cy="25.4200" r="0.5000" /> 
</g>
<g style="fill:#FFFFFF; fill-opacity:1.0000; stroke:none;">
<circle cx="32.6590" cy="22.8800" r="0.5000" /> 
</g>
<g style="fill:#FFFFFF; fill-opacity:1.0000; stroke:none;">
<circle cx="35.1990" cy="22.8800" r="0.5000" /> 
</g>
<g style="fill:#FFFFFF; fill-opacity:1.0000; stroke:none;">
<circle cx="32.6590" cy="25.4200" r="0.5000" /> 
</g>
<g style="fill:#FFFFFF; fill-opacity:1.0000; stroke:none;">
<circle cx="35.1990" cy="25.4200" r="0.5000" /> 
</g>
<g style="fill:#FFFFFF; fill-opacity:1.0000; stroke:none;">
<circle cx="11.0590" cy="22.8800" r="0.5000" /> 
</g>
<g style="fill:#FFFFFF; fill-opacity:1.0000; stroke:none;">
<circle cx="13.5990" cy="22.8800" r="0.5000" /> 
</g>
<g style="fill:#FFFFFF; fill-opacity:1.0000; stroke:none;">
<circle cx="11.0590" cy="25.4200" r="0.5000" /> 
</g>
<g style="fill:#FFFFFF; fill-opacity:1.0000; stroke:none;">
<circle cx="13.5990" cy="25.4200" r="0.5000" /> 
</g>
<g style="fill:#FFFFFF; fill-opacity:1.0000; stroke:none;">
<circle cx="54.9970" cy="25.6790" r="0.5000" /> 
</g>
<g style="fill:#FFFFFF; fill-opacity:1.0000; stroke:none;">
<circle cx="52.4570" cy="25.6790" r="0.5000" /> 
</g>
<g style="fill:#FFFFFF; fill-opacity:1.0000; stroke:none;">
<circle cx="54.9970" cy="23.1390" r="0.5000" /> 
</g>
<g style="fill:#FFFFFF; fill-opacity:1.0000; stroke:none;">
<circle cx="52.4570" cy="23.1390" r="0.5000" /> 
</g>
<g style="fill:#FFFFFF; fill-opacity:1.0000; stroke:none;">
<circle cx="54.9970" cy="20.5990" r="0.5000" /> 
</g>
<g style="fill:#FFFFFF; fill-opacity:1.0000; stroke:none;">
<circle cx="52.4570" cy="20.5990" r="0.5000" /> 
</g>
<g style="fill:#FFFFFF; fill-opacity:1.0000; stroke:none;">
<circle cx="54.9970" cy="18.0590" r="0.5000" /> 
</g>
<g style="fill:#FFFFFF; fill-opacity:1.0000; stroke:none;">
<circle cx="52.4570" cy="18.0590" r="0.5000" /> 
</g>
<g style="fill:#FFFFFF; fill-opacity:1.0000; stroke:none;">
<circle cx="54.9970" cy="15.5190" r="0.5000" /> 
</g>
<g style="fill:#FFFFFF; fill-opacity:1.0000; stroke:none;">
<circle cx="52.4570" cy="15.5190" r="0.5000" /> 
</g>
<g style="fill:#FFFFFF; fill-opacity:1.0000; stroke:none;">
<circle cx="63.1440" cy="36.3470" r="1.6000" /> 
</g>
<g style="fill:#FFFFFF; fill-opacity:1.0000; stroke:none;">
<circle cx="14.8840" cy="3.8350" r="0.7000" /> 
</g>
<g style="fill:#FFFFFF; fill-opacity:1.0000; stroke:none;">
<circle cx="22.5040" cy="3.8350" r="0.7000" /> 
</g>
<g style="fill:#FFFFFF; fill-opacity:1.0000; stroke:none;">
<circle cx="4.7240" cy="29.2500" r="0.5000" /> 
</g>
<g style="fill:#FFFFFF; fill-opacity:1.0000; stroke:none;">
<circle cx="4.7240" cy="26.7100" r="0.5000" /> 
</g>
<g style="fill:#FFFFFF; fill-opacity:1.0000; stroke:none;">
<circle cx="4.7240" cy="24.1700" r="0.5000" /> 
</g>
<g style="fill:#FFFFFF; fill-opacity:1.0000; stroke:none;">
<circle cx="4.7240" cy="21.6300" r="0.5000" /> 
</g>
<g style="fill:#FFFFFF; fill-opacity:1.0000; stroke:none;">
<circle cx="4.7240" cy="19.0900" r="0.5000" /> 
</g>
<g style="fill:#FFFFFF; fill-opacity:1.0000; stroke:none;">
<circle cx="4.7240" cy="16.5500" r="0.5000" /> 
</g>
<g style="fill:#FFFFFF; fill-opacity:1.0000; stroke:none;">
<circle cx="4.7240" cy="14.0100" r="0.5000" /> 
</g>
<g style="fill:#FFFFFF; fill-opacity:1.0000; stroke:none;">
<circle cx="4.7240" cy="11.4700" r="0.5000" /> 
</g>
<g style="fill:#FFFFFF; fill-opacity:1.0000; stroke:none;">
<circle cx="63.1440" cy="29.2500" r="0.5000" /> 
</g>
<g style="fill:#FFFFFF; fill-opacity:1.0000; stroke:none;">
<circle cx="63.1440" cy="26.7100" r="0.5000" /> 
</g>
<g style="fill:#FFFFFF; fill-opacity:1.0000; stroke:none;">
<circle cx="63.1440" cy="24.1700" r="0.5000" /> 
</g>
<g style="fill:#FFFFFF; fill-opacity:1.0000; stroke:none;">
<circle cx="63.1440" cy="21.6300" r="0.5000" /> 
</g>
<g style="fill:#FFFFFF; fill-opacity:1.0000; stroke:none;">
<circle cx="63.1440" cy="19.0900" r="0.5000" /> 
</g>
<g style="fill:#FFFFFF; fill-opacity:1.0000; stroke:none;">
<circle cx="63.1440" cy="16.5500" r="0.5000" /> 
</g>
<g style="fill:#FFFFFF; fill-opacity:1.0000; stroke:none;">
<circle cx="63.1440" cy="14.0100" r="0.5000" /> 
</g>
<g style="fill:#FFFFFF; fill-opacity:1.0000; stroke:none;">
<circle cx="63.1440" cy="11.4700" r="0.5000" /> 
</g>
<g style="fill:#FFFFFF; fill-opacity:1.0000; stroke:none;">
<circle cx="4.7240" cy="5.1050" r="1.6000" /> 
</g>
<g style="fill:#FFFFFF; fill-opacity:1.0000; stroke:none;">
<circle cx="52.9840" cy="3.8350" r="0.7000" /> 
</g>
<g style="fill:#FFFFFF; fill-opacity:1.0000; stroke:none;">
<circle cx="37.7440" cy="3.8350" r="0.7000" /> 
</g> 
</svg>
